<mxfile host="app.diagrams.net" modified="2021-05-07T13:54:03.837Z" agent="5.0 (Windows NT 10.0; Win64; x64) AppleWebKit/537.36 (KHTML, like Gecko) Chrome/90.0.4430.93 Safari/537.36" etag="mI9Z_o8Ip2KnalDR2bFH" version="14.6.9" type="github">
  <diagram id="j1ZAkHsWsdIPEYQirBjA" name="Page-1">
    <mxGraphModel dx="1422" dy="762" grid="1" gridSize="10" guides="1" tooltips="1" connect="1" arrows="1" fold="1" page="1" pageScale="1" pageWidth="827" pageHeight="1169" math="0" shadow="0">
      <root>
        <mxCell id="0" />
        <mxCell id="1" parent="0" />
        <mxCell id="i7MT5FbIJc9e3ZGVbQK6-1" value="Azure Service Bus" style="rounded=1;whiteSpace=wrap;html=1;verticalAlign=top;" vertex="1" parent="1">
          <mxGeometry x="240" y="160" width="120" height="270" as="geometry" />
        </mxCell>
        <mxCell id="i7MT5FbIJc9e3ZGVbQK6-10" style="edgeStyle=orthogonalEdgeStyle;rounded=0;orthogonalLoop=1;jettySize=auto;html=1;entryX=0;entryY=0.5;entryDx=0;entryDy=0;entryPerimeter=0;" edge="1" parent="1" source="i7MT5FbIJc9e3ZGVbQK6-2" target="i7MT5FbIJc9e3ZGVbQK6-9">
          <mxGeometry relative="1" as="geometry" />
        </mxCell>
        <mxCell id="i7MT5FbIJc9e3ZGVbQK6-2" value="Dev1" style="shape=umlActor;verticalLabelPosition=bottom;verticalAlign=top;html=1;outlineConnect=0;" vertex="1" parent="1">
          <mxGeometry x="154" y="290" width="20" height="40" as="geometry" />
        </mxCell>
        <mxCell id="i7MT5FbIJc9e3ZGVbQK6-4" value="" style="aspect=fixed;html=1;points=[];align=center;image;fontSize=12;image=img/lib/mscae/Service_Bus.svg;" vertex="1" parent="1">
          <mxGeometry x="285" y="186" width="30" height="30" as="geometry" />
        </mxCell>
        <mxCell id="i7MT5FbIJc9e3ZGVbQK6-5" value="ffc-demo-claim" style="verticalLabelPosition=bottom;html=1;verticalAlign=top;align=center;strokeColor=none;fillColor=#00BEF2;shape=mxgraph.azure.queue_generic;pointerEvents=1;" vertex="1" parent="1">
          <mxGeometry x="275" y="240" width="50" height="15" as="geometry" />
        </mxCell>
        <mxCell id="i7MT5FbIJc9e3ZGVbQK6-7" style="edgeStyle=orthogonalEdgeStyle;rounded=0;orthogonalLoop=1;jettySize=auto;html=1;entryX=0;entryY=0.5;entryDx=0;entryDy=0;entryPerimeter=0;" edge="1" parent="1" source="i7MT5FbIJc9e3ZGVbQK6-6" target="i7MT5FbIJc9e3ZGVbQK6-5">
          <mxGeometry relative="1" as="geometry" />
        </mxCell>
        <mxCell id="i7MT5FbIJc9e3ZGVbQK6-6" value="ffc-demo-claim-service" style="aspect=fixed;html=1;points=[];align=center;image;fontSize=12;image=img/lib/azure2/compute/Kubernetes_Services.svg;" vertex="1" parent="1">
          <mxGeometry x="150" y="234.27" width="30" height="26.47" as="geometry" />
        </mxCell>
        <mxCell id="i7MT5FbIJc9e3ZGVbQK6-9" value="ffc-demo-claim-dev1" style="verticalLabelPosition=bottom;html=1;verticalAlign=top;align=center;strokeColor=none;fillColor=#00BEF2;shape=mxgraph.azure.queue_generic;pointerEvents=1;" vertex="1" parent="1">
          <mxGeometry x="275" y="302.5" width="50" height="15" as="geometry" />
        </mxCell>
        <mxCell id="i7MT5FbIJc9e3ZGVbQK6-11" style="edgeStyle=orthogonalEdgeStyle;rounded=0;orthogonalLoop=1;jettySize=auto;html=1;entryX=0;entryY=0.5;entryDx=0;entryDy=0;entryPerimeter=0;" edge="1" parent="1" source="i7MT5FbIJc9e3ZGVbQK6-12" target="i7MT5FbIJc9e3ZGVbQK6-13">
          <mxGeometry relative="1" as="geometry" />
        </mxCell>
        <mxCell id="i7MT5FbIJc9e3ZGVbQK6-12" value="Dev2" style="shape=umlActor;verticalLabelPosition=bottom;verticalAlign=top;html=1;outlineConnect=0;" vertex="1" parent="1">
          <mxGeometry x="154" y="360" width="20" height="40" as="geometry" />
        </mxCell>
        <mxCell id="i7MT5FbIJc9e3ZGVbQK6-13" value="ffc-demo-claim-dev2" style="verticalLabelPosition=bottom;html=1;verticalAlign=top;align=center;strokeColor=none;fillColor=#00BEF2;shape=mxgraph.azure.queue_generic;pointerEvents=1;" vertex="1" parent="1">
          <mxGeometry x="275" y="372.5" width="50" height="15" as="geometry" />
        </mxCell>
        <mxCell id="i7MT5FbIJc9e3ZGVbQK6-14" value="Application vs Local development" style="text;html=1;strokeColor=none;fillColor=none;align=center;verticalAlign=middle;whiteSpace=wrap;rounded=0;fontStyle=1" vertex="1" parent="1">
          <mxGeometry x="160" y="120" width="209" height="20" as="geometry" />
        </mxCell>
        <mxCell id="i7MT5FbIJc9e3ZGVbQK6-16" value="Azure Service Bus" style="rounded=1;whiteSpace=wrap;html=1;verticalAlign=top;" vertex="1" parent="1">
          <mxGeometry x="570" y="160" width="200" height="270" as="geometry" />
        </mxCell>
        <mxCell id="i7MT5FbIJc9e3ZGVbQK6-17" style="edgeStyle=orthogonalEdgeStyle;rounded=0;orthogonalLoop=1;jettySize=auto;html=1;entryX=0;entryY=0.5;entryDx=0;entryDy=0;entryPerimeter=0;" edge="1" parent="1" target="i7MT5FbIJc9e3ZGVbQK6-23">
          <mxGeometry relative="1" as="geometry">
            <mxPoint x="504" y="310" as="sourcePoint" />
          </mxGeometry>
        </mxCell>
        <mxCell id="i7MT5FbIJc9e3ZGVbQK6-19" value="" style="aspect=fixed;html=1;points=[];align=center;image;fontSize=12;image=img/lib/mscae/Service_Bus.svg;" vertex="1" parent="1">
          <mxGeometry x="655" y="186" width="30" height="30" as="geometry" />
        </mxCell>
        <mxCell id="i7MT5FbIJc9e3ZGVbQK6-20" value="ffc-demo-claim" style="verticalLabelPosition=bottom;html=1;verticalAlign=top;align=center;strokeColor=none;fillColor=#00BEF2;shape=mxgraph.azure.queue_generic;pointerEvents=1;" vertex="1" parent="1">
          <mxGeometry x="645" y="240" width="50" height="15" as="geometry" />
        </mxCell>
        <mxCell id="i7MT5FbIJc9e3ZGVbQK6-21" style="edgeStyle=orthogonalEdgeStyle;rounded=0;orthogonalLoop=1;jettySize=auto;html=1;entryX=0;entryY=0.5;entryDx=0;entryDy=0;entryPerimeter=0;" edge="1" parent="1" source="i7MT5FbIJc9e3ZGVbQK6-22" target="i7MT5FbIJc9e3ZGVbQK6-20">
          <mxGeometry relative="1" as="geometry" />
        </mxCell>
        <mxCell id="i7MT5FbIJc9e3ZGVbQK6-22" value="ffc-demo-claim-service" style="aspect=fixed;html=1;points=[];align=center;image;fontSize=12;image=img/lib/azure2/compute/Kubernetes_Services.svg;" vertex="1" parent="1">
          <mxGeometry x="480" y="234.27" width="30" height="26.47" as="geometry" />
        </mxCell>
        <mxCell id="i7MT5FbIJc9e3ZGVbQK6-23" value="ffc-demo-claim-service-pr1-claim" style="verticalLabelPosition=bottom;html=1;verticalAlign=top;align=center;strokeColor=none;fillColor=#00BEF2;shape=mxgraph.azure.queue_generic;pointerEvents=1;" vertex="1" parent="1">
          <mxGeometry x="645" y="302.5" width="50" height="15" as="geometry" />
        </mxCell>
        <mxCell id="i7MT5FbIJc9e3ZGVbQK6-24" style="edgeStyle=orthogonalEdgeStyle;rounded=0;orthogonalLoop=1;jettySize=auto;html=1;entryX=0;entryY=0.5;entryDx=0;entryDy=0;entryPerimeter=0;" edge="1" parent="1" target="i7MT5FbIJc9e3ZGVbQK6-26">
          <mxGeometry relative="1" as="geometry">
            <mxPoint x="504" y="380" as="sourcePoint" />
          </mxGeometry>
        </mxCell>
        <mxCell id="i7MT5FbIJc9e3ZGVbQK6-26" value="ffc-demo-claim-service-pr2-claim" style="verticalLabelPosition=bottom;html=1;verticalAlign=top;align=center;strokeColor=none;fillColor=#00BEF2;shape=mxgraph.azure.queue_generic;pointerEvents=1;" vertex="1" parent="1">
          <mxGeometry x="645" y="372.5" width="50" height="15" as="geometry" />
        </mxCell>
        <mxCell id="i7MT5FbIJc9e3ZGVbQK6-27" value="Application vs PR deployment" style="text;html=1;strokeColor=none;fillColor=none;align=center;verticalAlign=middle;whiteSpace=wrap;rounded=0;fontStyle=1" vertex="1" parent="1">
          <mxGeometry x="520" y="120" width="209" height="20" as="geometry" />
        </mxCell>
        <mxCell id="i7MT5FbIJc9e3ZGVbQK6-28" value="ffc-demo-claim-service-pr1" style="aspect=fixed;html=1;points=[];align=center;image;fontSize=12;image=img/lib/azure2/compute/Kubernetes_Services.svg;" vertex="1" parent="1">
          <mxGeometry x="474" y="296.77" width="30" height="26.47" as="geometry" />
        </mxCell>
        <mxCell id="i7MT5FbIJc9e3ZGVbQK6-29" value="ffc-demo-claim-service-pr2" style="aspect=fixed;html=1;points=[];align=center;image;fontSize=12;image=img/lib/azure2/compute/Kubernetes_Services.svg;" vertex="1" parent="1">
          <mxGeometry x="474" y="366.77" width="30" height="26.47" as="geometry" />
        </mxCell>
        <mxCell id="i7MT5FbIJc9e3ZGVbQK6-30" value="Azure Service Bus" style="rounded=1;whiteSpace=wrap;html=1;verticalAlign=top;" vertex="1" parent="1">
          <mxGeometry x="970" y="160" width="220" height="270" as="geometry" />
        </mxCell>
        <mxCell id="i7MT5FbIJc9e3ZGVbQK6-31" style="edgeStyle=orthogonalEdgeStyle;rounded=0;orthogonalLoop=1;jettySize=auto;html=1;entryX=0;entryY=0.5;entryDx=0;entryDy=0;entryPerimeter=0;" edge="1" parent="1" target="i7MT5FbIJc9e3ZGVbQK6-36">
          <mxGeometry relative="1" as="geometry">
            <mxPoint x="890" y="310" as="sourcePoint" />
          </mxGeometry>
        </mxCell>
        <mxCell id="i7MT5FbIJc9e3ZGVbQK6-32" value="" style="aspect=fixed;html=1;points=[];align=center;image;fontSize=12;image=img/lib/mscae/Service_Bus.svg;" vertex="1" parent="1">
          <mxGeometry x="1061" y="186" width="30" height="30" as="geometry" />
        </mxCell>
        <mxCell id="i7MT5FbIJc9e3ZGVbQK6-33" value="ffc-demo-claim" style="verticalLabelPosition=bottom;html=1;verticalAlign=top;align=center;strokeColor=none;fillColor=#00BEF2;shape=mxgraph.azure.queue_generic;pointerEvents=1;" vertex="1" parent="1">
          <mxGeometry x="1051" y="240" width="50" height="15" as="geometry" />
        </mxCell>
        <mxCell id="i7MT5FbIJc9e3ZGVbQK6-34" style="edgeStyle=orthogonalEdgeStyle;rounded=0;orthogonalLoop=1;jettySize=auto;html=1;entryX=0;entryY=0.5;entryDx=0;entryDy=0;entryPerimeter=0;" edge="1" parent="1" source="i7MT5FbIJc9e3ZGVbQK6-35" target="i7MT5FbIJc9e3ZGVbQK6-33">
          <mxGeometry relative="1" as="geometry" />
        </mxCell>
        <mxCell id="i7MT5FbIJc9e3ZGVbQK6-35" value="ffc-demo-claim-service" style="aspect=fixed;html=1;points=[];align=center;image;fontSize=12;image=img/lib/azure2/compute/Kubernetes_Services.svg;" vertex="1" parent="1">
          <mxGeometry x="866" y="234.27" width="30" height="26.47" as="geometry" />
        </mxCell>
        <mxCell id="i7MT5FbIJc9e3ZGVbQK6-36" value="ffc-demo-claim-service-pr1-b1-claim" style="verticalLabelPosition=bottom;html=1;verticalAlign=top;align=center;strokeColor=none;fillColor=#00BEF2;shape=mxgraph.azure.queue_generic;pointerEvents=1;" vertex="1" parent="1">
          <mxGeometry x="1051" y="302.5" width="50" height="15" as="geometry" />
        </mxCell>
        <mxCell id="i7MT5FbIJc9e3ZGVbQK6-37" style="edgeStyle=orthogonalEdgeStyle;rounded=0;orthogonalLoop=1;jettySize=auto;html=1;entryX=0;entryY=0.5;entryDx=0;entryDy=0;entryPerimeter=0;" edge="1" parent="1" target="i7MT5FbIJc9e3ZGVbQK6-38">
          <mxGeometry relative="1" as="geometry">
            <mxPoint x="890" y="380" as="sourcePoint" />
          </mxGeometry>
        </mxCell>
        <mxCell id="i7MT5FbIJc9e3ZGVbQK6-38" value="ffc-demo-claim-service-pr1-b2-claim" style="verticalLabelPosition=bottom;html=1;verticalAlign=top;align=center;strokeColor=none;fillColor=#00BEF2;shape=mxgraph.azure.queue_generic;pointerEvents=1;" vertex="1" parent="1">
          <mxGeometry x="1051" y="372.5" width="50" height="15" as="geometry" />
        </mxCell>
        <mxCell id="i7MT5FbIJc9e3ZGVbQK6-39" value="Application vs CI integration tests" style="text;html=1;strokeColor=none;fillColor=none;align=center;verticalAlign=middle;whiteSpace=wrap;rounded=0;fontStyle=1" vertex="1" parent="1">
          <mxGeometry x="940" y="120" width="209" height="20" as="geometry" />
        </mxCell>
        <mxCell id="i7MT5FbIJc9e3ZGVbQK6-40" value="ffc-demo-claim-service-pr1-b1" style="aspect=fixed;html=1;points=[];align=center;image;fontSize=12;image=img/lib/azure2/compute/Kubernetes_Services.svg;" vertex="1" parent="1">
          <mxGeometry x="860" y="296.77" width="30" height="26.47" as="geometry" />
        </mxCell>
        <mxCell id="i7MT5FbIJc9e3ZGVbQK6-41" value="ffc-demo-claim-service-pr1-b2" style="aspect=fixed;html=1;points=[];align=center;image;fontSize=12;image=img/lib/azure2/compute/Kubernetes_Services.svg;" vertex="1" parent="1">
          <mxGeometry x="860" y="366.77" width="30" height="26.47" as="geometry" />
        </mxCell>
        <mxCell id="i7MT5FbIJc9e3ZGVbQK6-42" value="" style="shape=image;verticalLabelPosition=bottom;labelBackgroundColor=#ffffff;verticalAlign=top;aspect=fixed;imageAspect=0;image=data:image/png,iVBORw0KGgoAAAANSUhEUgAAAZcAAAC8CAYAAAC0euNMAAAgAElEQVR4Ae2d72skx5nH72/ReaZ6Zy1Lyqy1v/RzvKtFXp+s3B6yYlmJLlplsbLKZmWD4wOjQE7cEhZz4TYceB1uk5AT4TgLjj3BJYJgy7AgEKfD6wzZJcL3wnqRgQMPBFavvkfNTHc/3VP9Y6QaaUb6vhAjaXqqq6s+/Xye6q6u+QvldIA/bAMyQAbIABmwycBf2CyMZRFOMkAGyAAZ0AxQLhy5ceRKBsgAGbDOAOVCqKxDxcyVmSsZIAOUC+VCuZABMkAGrDNAuRAq61Axa2XWSgbIAOVCuVAuZIAMkAHrDFAuhMo6VMxambWSATJAuVAulAsZIANkwDoDlAuhsg4Vs1ZmrWSADFAulAvlQgbIABmwzgDlQqisQ8WslVkrGSADlAvlQrmQATJABqwzQLkQKutQMWtl1koGyADlQrlQLmSADJAB6wxQLoTKOlTMWpm1kgEyQLlQLpQLGSADZMA6A5QLobIOFbNWZq1kgAxQLpQL5UIGyAAZsM7AvuWyrOawl13EXnYOG17H5HBPjWNXLdTe0+/Po6RG8cDbJt7o404ea2oGJXUrVMYENpxOjKcsR2dOBdWDNWcKpey8KEvX6RbKlXpNoqh6UjZqJ1bUBHZVqCw1h101ihUnk1DOpF8H1Re7rd+2iyiprohtR1GqtH9wm9vOMLbVHMq19yrHqiaxoTpRSN12uh/HsKPmRTnVviyrKWyqPN5NVVYGy84oioFydNvPYscZxj0Vz0Iw+81gqVKWPjbJRq1eukx1FSsNlflNfLBRxFfPynj25xL++F8/bKCNGqk7tw32JdvjJLSHNbmMqxHsKH2iR/3cwLaKC8AK99V0KJiZyhrD/cTApnDfmY2piyg3IdBrCJacyRT10kF+AEuRdWu2XHqwHhZfqC9KqhfTkfWrnvBLzjVPWtF9GRSa6UQpOAMohvZfX948dpxk6RWc4QS23P6UiU5yAJteLeKZFov3U8J/f9gfIfPk8kztwP+x3U4qAxbkoqUxEQq+MyiqCRSz7ujGPfmvRYghg/vqhpDBLZSyY1hXA1hVI9hUM8Hy1SiWY4LksgqLRY8uJqp1qtRrFuVsbXSVIJf6suZRytbKyupy3GOrvpZVH64b69ZMuVxFMSD2G7Xj1aM2Wb8FbMdk9vXHegtlVevLSvv5o4boEZUOJpewK/dbKWMYq2oAa2ocO4FR6QKKjooJ6OdDktJ1mvL7Uk1WRpPVfmhMLitFKZbq73/a+GFMXRgoT2qg5HE3zr4FucjgNYHV0OWhghrAjhdozMFtOiCnWWwYRjgFdR7bXjmLKDtRl7N6xXY6cOViLnVkcD1UXwlRQV0T8ljArurF7Tpx5OpGSTvGYNk8ufgjghsoqvClwxxW5WVK1WsMnsE+WERZjeJ+hIj0pcsHTs5YjnK6sCFEV1YDhjbL4G5glDqF1bp2rcJ825nxkw51FXcjttP9VnBU4shM9u8P1nfEqKUqly/XvhtxXI2fXHJf/J3td9IYsCYXcxCpAnVfBLf6jLcHm14wWoA5MLtg+vcZ9rLXIu7jyG3ig1F8Z+ewLmSm6x13z+KeHHmpMUMQbLJc1ARWI2Sg1DU/QGdNoz7ZB1osUaMvtx+iX6fVlNjX1ZgRZgYrgotdZZbVisfGInYMSUd8H0bXs/K5yz/Eb/+35Anmq6erWLqc8JkYuR2oLiyXUj9mDFiRS1mdj7gUVD1R429Qj4nRwRjuxTZwDutesDGPgpSSl2TmsLnvgCQlFSUyGYjkCM10eaaZcpmIEK1bP3ks9XIpOFI+k1iJ7QO3TNNrBmtCyDsxo8JKIJbSU5cMI5wOyMRkzzgKMtWjkf/1Y/p738X3b4wyuO273xtpb257UpIQK3KpH42kB2hJ3h+JuGQjO+OeuGldUp2GgKACAU7PliqpYdxzMrEjD7kP/fu0IzJw1Zfis+HAGm6DZsqlXhjh44n7W7bpXoo+iC5L3h+ZwXrUSMoLYsPikumEUWoFRyYfi9jTs9WcnthkJrp+4T7h32wrMtAsBo5cLvKyR1mNVG766hu/UT9yRlS01PpCN7jd+0LVacOrTi5xSnP8aMsMpMyy6+vWqnJJkqL5WM1AyhHSDDZj+rHav+Pixn/0iKl+ooHuz+qN/U3VG3PprZG6c1tzn7Jd2C77Y6Cl5OLfmHZlEP9aH8BlI3TigTMlLrmFy5qrPONintnVASm9+P34+4wXUqvKpQsb4lJW0RtV+MeV/uSScgm3d9Lf0XLR+7+uhlEMzDKT5elnZ8YSLg3u53j4mfR9z7ZiWwUZOMZycQ9UP8hnmM7sBVTzJaV4UbhlB1+DI5fwJbtWlUtnYHZXq8rFPXH1TLXVuunMrmjmE6Y1B/vLLZOvbBcyYJ+BI5fLsphllXaEsH8QMriu+rAp7tvo0ZJpplLwXtB5w72dcGfIyQaLKNbdb2hVuexvlGbuAzmpIX4kYv58uE3j/y44nbinwg99ppl8EV+ujbqxDLbxSWfgyOVScIJBN266r83OkiOTPdNMJTmTKXLaszyBhsX9gymshS8vBcobjnkeI/icSLRw5SUo8+grbXsFRWqaRi2PM+53eYnNNGMu7rMHeU9KLWIWYbg/vL85WywtJ9zuIIyevM8euVyUIwPDYQYkITXjsx/BhzZ1kI8Wnwo8s6GnzNYvsyJlEJVdd2FdPPuhR1WHIRfljAgxVvcZfazxJ8ldR6y0oAYOaVaXlNoiUl/a08+57MjnXH6NH3jSiT9OBlq2DxmIZ6AF5BJ6liE7i+3YBSr1pa1erEc+od+De4lPandiTQbxiOm3wVlK+gn9HsMssxzuy+nU2VmxkKdsfLlyQH0AL6hebNYtyHhYcgk+0LiXra5GELU4ZfwT+vI5I/1A5kjsApXVS1vDEasB6PtlPbid8LzMbTUmlrlJMwW62i+mJ/T/uDqZ4hKo7Ff+ziBLBkwMtIRclJPHpneD3b05u4CS0qsWu2uCzQRXN45cE0yMSJRekVmWMVFZ6Tc4K20G65HZavASVfVzcWuLLWAn4klz3fiBrL5yvO66XSLbr4xWJr1geTgjF31ymKZvh9fxSre22LumWXpKr1rs9mW1H/zVjaNGrHJEslBdTVmUUdSrZ4eEXFa9MSPMYBDg2mLB9jAFCP6PbbRfBlpELroD89gI3WgPSsCVTu1VRd1kF3KpE1a4jOkYsbhQ6UtVoWX2jeXOYVvFrWOmyzPJStbJXSXYv4R2eHJprA+i61Vtt7SrK1f7OGq0J+Ui28n0u35YNn6liPBJUr8qchm//zVHLuF24t9uLOBrIyy0kFyqHTft9GGjkpHK74TRwWS+ukKvM4IHsU/b57HuuJlxuAz9hLceeYxhPfbSWz1EXr0Cz1osVFboTf/9JrpcfRltMvR9NfrhTvn9Jkcll+Q+KKkJbKi03+cS9b0wte/TyY4nlFX9PpjtCg/h75bRTOj216O/gdhLb9EnxDfxwaPa4pX6+1zW/8Fw2bOehejyuC3bhgy4DOxbLm4BfCVMZIAMkAEyEGaAcom830JYwrDwbzJBBshAWgYoF8qFs6PIABkgA9YZoFwIlXWo0mY23I5ZMBk4vgxQLpQL5UIGyAAZsM4A5UKorEPFbPT4ZqPsW/ZtWgYoF8qFciEDZIAMWGeAciFU1qFKm9lwO2bBZOD4MkC5UC6UCxkgA2TAOgOUC6GyDhWz0eObjbJv2bdpGaBcKBfKhQyQATJgnQHKhVBZhyptZsPtmAWTgePLAOVCuVAuZIAMkAHrDDQkl5Erw9A/Z8/2WK8IM5jjm8Gwb9m3ZODkMUC5MGNhokAGyAAZsM4A5UKorEPFLPXkZansc/Z5mAHKhXKhXMgAGSAD1hmgXAiVdajCGQz/ZlZLBk4eA5QL5UK5kAEyQAasM0C5ECrrUDFLPXlZKvucfR5mgHKhXCgXMkAGyIB1BigXQmUdqnAGw7+Z1ZKBk8cA5UK5UC5kgAyQAesMUC6EyjpUzFJPXpbKPmefhxmgXCgXyoUMkAEyYJ0ByoVQWYcqnMHwb2a1ZODkMUC5UC6UCxkgA2TAOgOUC6GyDhWz1JOXpbLP2edhBigXyoVyIQNkgAxYZ4ByIVTWoQpnMPybWS0ZOHkMUC6UC+VCBsgAGbDOwLGWS8HpwoqawK6ax152UfzMo5Qdx4YaQ1HNoZydwIoBrmU1532mpLpiG39F+eUXDWUFM7cM3nWGsV3Zt/+5PTWHXTWKFScTuy/l9KHoHc+kse7+/kZR8rYdxXJC3aptNolSdsE79r3sAspqCpuqB7cTPu/vV2dqOdxTY9hR8yh7dXCPdx5lNYOiuoS7jZR54x4+2Snh2bMynv1fEb+905/QVicvYwz2AY+f7XE0DBxTuWRwV00bApob2MKv5gDdHLnksaFk4A7XRf99C7tOHtcjg25z5LLkTAgRmeq1iD01ibXIevkQX3fGsFsnFFOZ5rY3B4RJfPS0XBWLlov++WoTH1z292v+HN9nu5CBw2bgWMplWc2KrFsHRJ11D2C18jOKbTUTCqLmAGdfLr3YDgTcOew4I7V66VFUcISlR0sFYyC3L5flkIzLagIblfYaxoaaStVePrxytKSFsoCSmkRRTdR+dHnuaMbc9n5ZMij8HL93peK9folP/l5uw9/Nbcd2YbscLgPHTi4FdU2MWGax6aiIyybJAdquXDJYkSMWddV4Oei2uiYC+Q1sKhMQyXX3TyQZ6KMui8ltFlB0cgap9WA9UP8BTBvF14H7YruyGoi9lDbuKIxHlOMfg9sGb+G3X4ZGLs928J9vue/ztb7N2CZsk6NhwKJcMug+dw5DL/Vj4OIL6Dx9sAPK9XwN/UP9KAy+iPwLz0UIIryPHNa9kcECdiLFoj+XHKCtykWNCelNYjUmoMr97qnzhkCfXHf/hJLiMMklg1Vxvyh6tBRus1msG4+hCxteH0TJMdxv6f8u3FnDl1+5ginhj//xd4b2SV+e3078DNuCDNhkwJJcnkN33xBGrgz7Py+dQdep/XXWqXwvLsuyrgzgfPdfphCMCKRqzDgy8BsvOUDLIH/QG/r3xCWvssrHH4u6JO5XXMP9uiCeXHf/OEWbZE1yGcaOJ4OpxPspclSy6+QMx5HDupSV09PAyCQlL5cnMf/Wd3H9Wsrt69qPn/P5YFuwLZrDgB25PN+FwYAMqpK5mE8jhPCBZXBmUEjKLbfveTgJQeK2M+Pfa1G9hsAn95UcoO3JpRMbXsBdwLbxUpesWx6bXsCfxUbdcSfX3T9hEuSiJkSbXYq9hKXLnHamxPbnjW18XW6jj0Ndw5rTGXkZza+rbAP+znYhA+3MQFPl0p9PezlLQpTFmSGDXAY6caouyMrPdUCODpJGGod7Wey8mDo8j6I3ucCdZBB+HRHbzzVVLkuByQ/jtckF4frIv6XA+4xyUY7Cihip+dPA9Y19PVEgj3cT+rKdTyrWPXhesj1OZnvYkYtjEMLIOXxtn/ddTr94wb+8Vhm5DKE/n/TsRwcae9YkOfu3N3KR+zJNx437X3PlIo/Rl0BcfcR7Kkou1ZNpqfKMyy1/pOONxnQZt1BSwwmXLk/mSclgzH4/DgxYkksH1Okczg4OVu6VXC704kzqm/AmkJ5D17kLuDQyjJGRPlx8USWOWnRnSLmUVGdEVu3uTwZ883RYGXiTRkJy3/UPUcp9ieAcCLZR/29fubgnyLTTi3VnErvKJBrTZT+3j/jqtiFfyUK7MWBPLi1wmWNZ3fCy5CQZKGdY3DRvtlzkDCqTLBo9caSszHX3QYy/51JwJr0220sYifhlNlpff/txpwcrTvgB1xFeJmuB88dG/7IMn/WT3hbHSi6Bm83Z4ZgbyDmsimcx9rLmAC0nCMTP8JLBfhH1I5fgqMr0fmMgyocx42d4BR8oNc0Wi5dPY/VKf2IVnKvieZ4ZrCdOchBlc7ZYwqhctBWlxbY6IgaOlVyUIwNl1HMY+mZzePkVs1yUzOqzUdn1+dBT92a5TCsxyyp7NXGNr/igLkdCC9iOgGe5boRgkksPNsVMtvhng2wGLSnk9KM5/ZzLH+VzLqtvMXhE9H88Qzb7kmWxresZOGZykQ9R6imwI6EgHnrK3LvnESGXwPMm+sn14NP+484wdrzA7N8zMY9M5GhDbzuesEClwl1nBCsRGb183mRPhaWRw30ntARO5VjD21WBeFdO4c7OYydhgcppJ49Vpzdi2nIOd51OzMcGvAyW1JR4qNT0LE89rMoxPaFfxEczpm35PwY8MnCUDBwzuXRgWk2IoKWD+Bx29JpWWX+FYz0rSq+d5T88GCEXJ/j0up7hpFcH1mtk7QRGPwsoqmnv3oVZLh0oOGPiUpArI70Ssrvmln6dQ1nc+I4qSwWe+Ndl3aiVE1o3TU2K4zTLRa9evBpYBVmX5x9rdU0wuR6Yfj+qLDkicVc+FseXnQ31zyLMD2OaAgPXFjvKYMF9m5jk/6K4OHZy0QcavM/gBnH31V1xWAbBKLlocOR2bhny1V2/zL8xHikEpwPXnVHjaCdqGnAxYuSSfJxaoMNYcuQltCgh6OPsxKr4ioGo+nj/V6NYMo5OktpLtt08dpyoxTlNJ61hVeQ/b2OFIxdeGjSyaGKI/4uSge3/H0u56Ea6rUZCqwzPoxT4rhQZBOPk4gZePSIQU2nVLIqqTwTYdHKpdmAGy85o7btkRJn60pXS9ZzEpuoNXdIznxT1x6kfVBzHmrf4ZFq5VMsfd/JYc6qjFE8klUtqCyhnZ7GjRrHq5GKWdKl+h0uxMkJxVz4OCqX63TC9ou3Mx2aE/cY9bLqLV+rvc3l/lIGVgZUMtCADx1YuxsAU6IBG5NJA8Avsg59L7ge2EduIDBxHBiiXSlaeNHIh/McRfh4TuSYDzWOAcqFceEmBo00yQAasM0C5UC7WoWI22LxskG3Ltm0XBigXyoVyYdZKBsiAdQYoF8rFOlTtklmxnhwFkIHmMUC5UC6UC7NWMkAGrDNwguXSPGMzG2LbkgEycNIZoFyYsVjPWE76ScXjp1jIQAcoF8qFciEDZIAMWGeAciFU1qFi1sbMnQyQAcqFcqFcyAAZIAPWGTgWchm5Mgz9c/Zsj/UGYgbGDIwMkAEy0DgDlAszFgqZDJABMmCdAcqFUFmHille41ke24xtdtwYoFwoF8qFDJABMmCdAcqFUFmH6rhlYDwejirIQOMMUC6UC+VCBsgAGbDOAOVCqKxDxSyv8SyPbcY2O24MUC6UC+VCBsgAGbDOAOVCqKxDddwyMB4PRxVkoHEGKBfKhXIhA2SADFhngHIhVNahYpbXeJbHNrPRZhm8c+dlfLz2dTy804lXeG4f6blNuRDAIwWQQdVGUG1iGW++jCdP38Zu5M/r+LBFzqH3fjEXqOfjn+XI9hH2DeVyhI3PwNrEoMh+tRNY20Yu3Xi4FZLg5st4hxzY4WAf7Ui57KPRKAVK4cQwcKUbP31/EL+UP//yOr7wRjKtMnLJ4Je/C8nl4QUM8fymXA5ysnJVZAb7g/DDzzbIT2A00ypy6YB69QI+3rxdvTS2+XX89NUGj4sisioijlwIlFWgGKhPQEBrVbnwXG6pc5lyIZAtBSTl1AZyolx4zqSIm5RLikZiwGuDgMd+PLyAR7kcXlu3MdeUSxt3nh3pdWEju4i9ys8Y7tXaY9oZwLaaQ9l77xbKagbbqhPjiW2WwbvOeaw7E9hR8yhnb9XKr+1HzWFXjWLFyaAQUdaymqt9ZhTLTgcKzgCKyi1nHjtOl/fZJecaSu4+1BQ2HJV48o87eaypGZS8MnXd5lFSE9hw0hxjWLj9WPr3bfzpz2U8e1bGn7Y+wPWIY7PTb+H9R//9jZt9eLj2bTz5rHY/onIz/ja++Ow7eLz2Mj68mWnsxvcB5DJ0qRM/vnMF62tv4MlnN/HFH+RN+Nv4YuvbePSrPrx3Kfp43Pb78Dfys/W/P/lVdyIH7/3qO9V7NFsv4z2nA0N/O4hH7n2bP9zE1s+6vbZ55/2/wZPPa224/QYe/l0yZ25dT+Ir5dIiAeDo4JNymcSKk8MDL7C70gm+llVfbOD0xRD8XFVgwf+V1HljWX4ZWi59KHqScz+/gG2nA9edSSFA970prEX2q8J9NW34jPtZ93UM9yPLMAS+9z/FV8+qYtFy0T9f/tdbicGtqf3+6hk8/ORm4NkP8/MqDd6U37dcDNOFvVlnYTm8iY//Pj54W5fLq3149Hm4Hrfw8Xsd+NZdOUPO3eYN/JqTBiIZp1waCSDHclspFz2iWBCjjHnsqgkU1RRKgeC+gKKTiYTKF8Mi9pQeDUyiWClnAsXsbF1gL6muurL8Miax7dZJTaGobnj1K6lRTzplNYkdMQrZdUwP0GVwX3x+L3sLpewY1tUAVtUINtVMsG6qOmpKI4DljS8rQnHFUnkt/rzuuNKUZWUbU6D8w008+d1reLSmf6ojh6psjkIutZHTuluf17C1GRbhHB6+aRB57Tz80Qf+Z6vH9Boeb7uB/200NHL5/HV8/JtbtVHMG3j0yZuelJ/8+8uedL549Dq2tvwRIB/UjO4fyuVYCiO6w+sDl5SLm7UvQo8obgfaJodVN8hXRDOM6cD7/j5vq2GsOp3GEUl1/zncV7OeJPay1+pGCb5c3DpdrVweU04em57oqiL0R1JXfQmq83WBfVpNCHnMYkPVC7KgzmPbK38RZaenrpz6NuxA4V826+Ty1da9VJ81lXew/3Xj4aYfZHefvolHP4lYDiWfwXt3zlYuCaXe575HLjn8471B/Pi6ilyaZWjiLNZl3R+ebagN5WimIbm4I6itV/BeXrN8Buuf1drw86p0vvhNH76lmb/5ir9qwdqFhuqXuo0jzq12+rxFuWTQfe4chl7qx8DFF9B52g82+2mQXM/X0D/Uj8Lgi8i/8FxsByY953LqhRdwYbAfhaFzONuTjS0rsa6nFPIXz6Pw0kX0nzuN0y0EQSNt5h9nvVxKqifivsqYCM71QvDLTNP3UhJz2Ai1Y1AuC9hWbpnh+upLee574vKZ6gv1cw82lSuqBezE3pcZ9SWVvYYHXvnufkyv38SD/xGjly8/xQc3TNul/N8BOPvGT97wsu7dp3N4eDPlPlMdZwfUvuWSsh7vvOo/pFm7F5KWrYPJ5RY+XnLrGLqE9/nr+PCK+14fHrky+k2YM3cbvlqSy3Po7huCG+Qrry+dQdep/TXwqXwvLl8ZFuUN4Hz3X4aChV+2u9+zZw1ZZmcPhgNlDWHwxf0KRqG3IOs1jMuDXS0hmEbbzD9Zg8HaHwX47etvK4J3VgZ107bJ/1vxgv0iip48qp8LymVYjIKC9Q1e/hL1q5OLFKM/ccE/NlnfHNa9ukmxyW3Mv4/f+C6+/71Jb7KBuXzzZ/1tD8JZDh898kctabJ3f79J9aq932y5OCJ4P32tobXLDiSXTwrVkUlFskG5BC9/ifpRLpFx2Y5cnu/CYCCAVwPwxXy0EKKBzuDMYDCAV+TR9zyciMwqTi5dF0LS0/V8qQfPR5QVXa8OqO4zIenpevajtzPlSel04Pv/+il+/3g7+WftHyI7rb6OjbeZX4YM1vUjCH87fYwieKeWi8JtJ4+Vyn0NfW/D//Evby2iGOoPKZedwHuyvpNYDbwn6heSy5K8DKd6E9v2npr3LtuVVGfi9sF2Ss+D8XMH4exKAVtuVv302/ho8oB1CbRvrSxLcnnlr3J4550LwaVlKsvMfB2PvWNo7H7QQeSy9b5sKymX1/HLyqUy933KxchtiJWmyqU/H385y1zBLM4MGeQy0IlTocq7n4+Xi6GsS3m8EFGWW6bxtfuMGE255Q7iXJcLXfKr8cZvaJZR4zeDG28z//hksLYnl9vOsJg67F6Oin6Nk0vwPVnf8OgpWi5ylFRWIwHJSeG5v68H5FI/4cBvv+Q+b3jbg3AWuKT0SmP3UtKeEweRSz6HH//z3+BJYAqyP9Kqn812eHJ5dFf2ZVAuwZWfKZc0TNuRi2MIbiPn8LV93nc5/eKFUBAfQn++/uare4BxcnG6z+BSaFT10rlT+8tET+Vw/pIrldrrS42Jqjly6UCjbea2nXJksLYjl2U5ShA3x01Tkd3/BQXSATlyCb4n67s/ubj7TPtqms3mt58MSJZ+Pwhnd1/377c0eL8i9THtVy75bjx85M+0qheJSTKUS+p+SZscHNJ2luTSAXU6h7ODg5XLRpcLvTiTcBM+vsGeQ9e5C7g0MoyRkT5cfFFFjlp0OXFy0e8/f6YXw5WyBjF44TRyB2nczhdwsaAvtQ3h0mAe3c9bCigHqVPls421md/+MlgfXC4FdU3c9F9EWY1hRSnjzDI5mggK5ITLRffnfjm781rLyuUfH9am+lYued3E1r/14Ud/bXqAU4wMnlIu/rnaKrEmXT3syeXAwTFdhU0NnSQX02f4P7e97cpFCmNPDYgb8e7+/Fe5bbPlsiyebzn0kchhnhuhUUXwXoHf9gfiP7SP4CWjiH3kpTBuYev9uAck5baUy4H66jDZC+2Lcgk1SLt25P7rbVMusqz6m/ThOh6mXArOpHeDfk/1HXA2V0QAdTpgZ7ZYdPnhNqz/+4I/Tfbp29j6SfTl5PrPptzvfuTS0Gcol333TQvFM8qlhTrjaICSQjjoZTFZVpxcMrgbWoKl2SMX5Qxgx7v/k3ScKYNsgJ1v4sGWfM5lHf80s59yDv6Zn8rLT/r5DNtLlDQkitrxpP1MXw8++lRePuPI5WjiwsE5pFwCAeLgDdp+IEghJAVdMRvLOBU5gzUvgOulX0awFGrf8cqCmHKJmeoMsubLpQP3AysMzGI7doHKDK6rXqwf5An9R41MJ7fIXiCQv43d7dfwy6jFKQ/rCf3AFOm38fhnnd6CkNVzJoN3fvJ1PK5b24tyab+YUmWZcgkFv3btyP3X26ZcOjCtpvzLTxXR3BDrk7mrGtdPST4MuQSXjnHrsNRekvQAAATySURBVBBc+0yvlJz1n3HRl9DStK1xFuARri323i/m/Bv77jMjn38Hj721vNKtLWZav+vRuiz7TTyurFUm1/m6jB/VnVeGryHe/nZ1nbPfzdWtjuzPJIuQy+QFrNftN7i22O7mG7V11Py6rd8JrjnnrYr89G1wKrLFBMfpAOVSdxLYbeA0gelot7ErF+UorIhnRMzTfeexo3pwV6y+fDhy0X2bx0Zi/Vzx6NFX/Rplxv4yrIr8p40fphKTsTwLXFaWiE/1PElEAHc6IB9K9AO+acqw/F9EeXoxTXe9Lld44dfPvoWPFnvwcMstL6Ks8OgsXE7E3+EVCyiX5sU7ysXCSdys4HA45dqWi4Y1gyVnFMVAEK9+H0xR9dUWoIybbhz3nqxv+udcwm057fRhozJKCV+im698b03RGcGDmO+bCZennH4s/cc2vhLf5/L9y807cev3H7GvPv3Q4quVFYfrvjvlszls/dsV/DTqkpltuehzra8TH/7q9eB3y/zhFp58+hoe3unGNypPwsc9wFg7TsrlSBOXNPxRLideLhFBie3S8idvmhOc25Dvo2KAcmEQZRAlA2SADFhngHIhVNahOqpMiftllk4GWocByoVyoVzIABkgA9YZoFwIlXWomD22TvbIvmBfHBUDlAvlQrmQATJABqwzQLkQKutQHVWmxP0ySycDrcMA5UK5UC5kgAyQAesMUC6EyjpUzB5bJ3tkX7AvjooByoVyoVzIABkgA9YZoFwIlXWojipT4n6ZpZOB1mGAcqFcKBcyQAbIgHUGKBdCZR0qZo+tkz2yL9gXR8VAQ3I5qkpyvzxByAAZIAPtxQDlwpELRy5kgAyQAesMUC6EyjpUzDDbK8Nkf7G/msEA5UK5UC5kgAyQAesMUC6EyjpUzciCWCazazLQXgxQLpQL5UIGyAAZsM4A5UKorEPFDLO9Mkz2F/urGQxQLpQL5UIGyAAZsM4A5UKorEPVjCyIZTK7JgPtxQDlQrlQLmSADJAB6wxQLoTKOlTMMNsrw2R/sb+awQDlQrlQLmSADJAB6wxQLoTKOlTNyIJYJrNrMtBeDFAulAvlQgbIABmwzgDlQqisQ8UMs70yTPYX+6sZDFAulAvlQgbIABmwzgDlQqisQ9WMLIhlMrsmA+3FAOVCuVAuZIAMkAHrDFAuhMo6VMww2yvDZH+xv5rBAOVCuVAuZIAMkAHrDFAuhMo6VM3Iglgms2sy0F4MUC6UC+VCBsgAGbDOAOVCqKxDxQyzvTJM9hf7qxkMUC6UC+VCBsgAGbDOAOVCqKxD1YwsiGUyuyYD7cUA5UK5UC5kgAyQAesMUC6EyjpUzDDbK8Nkf7G/msEA5UK5UC5kgAyQAesMUC6EyjpUzciCWCazazLQXgxQLpQL5UIGyAAZsM4A5UKorEPFDLO9Mkz2F/urGQxQLpQL5UIGyAAZsM4A5UKorEPVjCyIZTK7JgPtxQDlQrlQLmSADJAB6wxQLoTKOlTMMNsrw2R/sb+awQDlQrlQLmSADJAB6wxQLoTKOlTNyIJYJrNrMtBeDFAulAvlQgbIABmwzgDlQqisQ8UMs70yTPYX+6sZDFAulAvlQgbIABmwzgDlQqisQ9WMLIhlMrsmA+3FAOVCuVAuZIAMkAHrDFAuhMo6VMww2yvDZH+xv5rBAOVCuVAuZIAMkAHrDPw/p/zX6g2qlr4AAAAASUVORK5CYII=;" vertex="1" parent="1">
          <mxGeometry x="790" y="630" width="407" height="188" as="geometry" />
        </mxCell>
      </root>
    </mxGraphModel>
  </diagram>
</mxfile>
